# xmcd
#
# Track frame offsets:
#	150
#	16332
#	29387
#	42932
#	55761
#	70004
#	82498
#	96601
#	108494
#	119588
#	134687
#	146542
#	161465
#	177139
#	190266
#	201555
#	214642
#	226745
#
# Disc length: 3288
#
# Revision: 2
# Processed by: cddbd v1.5.1PL0 Copyright (c) Steve Scherf et al.
# Submitted via: CDex 1.51
# Normalized: r1:TDELIM( - )
#
DISCID=0b0cd612
DTITLE=Various Artist - Les grands moments du Jazz
DYEAR=1998
DGENRE=Jazz
TTITLE0=Glenn Miller - In the mood
TTITLE1=Billie Holiday - Saint Louis blues
TTITLE2=Ella Fitzerald - Sugar blues
TTITLE3=Benny Goodman - Stardust
TTITLE4=Duke Ellington - Harlem fat blue
TTITLE5=Django Reinhart - Minor swing
TTITLE6=Ray Charles - Kiss me baby
TTITLE7=Louis Armstrong - Mexican swing
TTITLE8=Benny Goodman - Goody goody
TTITLE9=Frank Sinatra - All or nothing at all
TTITLE10=Duke Ellington - Hot feet
TTITLE11=Billie Holiday - Georgia on my mind
TTITLE12=Glenn Miller - Tuxedo junctions
TTITLE13=Django Reinhart - Djangology
TTITLE14=Frank Sinatra - Deep night
TTITLE15=Duke Ellington - Cotton club stomp
TTITLE16=Ella Fitzgerald - Sing song swing
TTITLE17=Django Reinhart - Daphne
EXTD=YEAR: 1998
EXTT0=
EXTT1=
EXTT2=
EXTT3=
EXTT4=
EXTT5=
EXTT6=
EXTT7=
EXTT8=
EXTT9=
EXTT10=
EXTT11=
EXTT12=
EXTT13=
EXTT14=
EXTT15=
EXTT16=
EXTT17=
PLAYORDER=
